<?xml version="1.0" ?><!DOCTYPE svg  PUBLIC '-//W3C//DTD SVG 1.1//EN'  'http://www.w3.org/Graphics/SVG/1.1/DTD/svg11.dtd'><svg height="6.82666in" style="shape-rendering:geometricPrecision; text-rendering:geometricPrecision; image-rendering:optimizeQuality; fill-rule:evenodd; clip-rule:evenodd" viewBox="0 0 6.82666 6.82666" width="6.82666in" xml:space="preserve" xmlns="http://www.w3.org/2000/svg" xmlns:xlink="http://www.w3.org/1999/xlink"><defs><style type="text/css">
   <![CDATA[
    .fil0 {fill:#226CE0}
    .fil2 {fill:#FFFFFE}
    .fil1 {fill:#FFFFFE;fill-rule:nonzero}
   ]]>
  </style></defs><g id="Layer_x0020_1"><circle class="fil0" cx="3.41333" cy="3.41333" r="3.41333"/><g id="_208882736"><path class="fil1" d="M2.95576 1.85067l0.915134 0c0.102366,0 0.195374,0.0418228 0.262748,0.109201 0.067378,0.067374 0.109201,0.160382 0.109201,0.262748l0 0.178256 -0.157205 0 0 -0.178256c0,-0.0589724 -0.024185,-0.112642 -0.0631417,-0.151602 -0.0389606,-0.0389567 -0.0926299,-0.0631417 -0.151602,-0.0631417l-0.915134 0c-0.0589724,0 -0.112642,0.024185 -0.151602,0.0631417 -0.0389567,0.0389606 -0.0631417,0.0926299 -0.0631417,0.151602l0 0.178256 -0.157205 0 0 -0.178256c0,-0.102366 0.0418228,-0.195374 0.109201,-0.262748 0.067374,-0.067378 0.160382,-0.109201 0.262748,-0.109201z" id="_208882712"/><path class="fil1" d="M1.82411 2.40088l0.540268 0c-0.00177953,0.047378 0.0159252,0.0901496 0.0395039,0.147122 0.0144449,0.0349016 0.0313583,0.0757638 0.046874,0.126441 -0.0544528,0.0442559 -0.104339,0.101929 -0.142114,0.180976l-0.155476 0c-0.0217047,0 -0.0393031,0.0175984 -0.0393031,0.0392992l0 1.25761c0,0.0217047 0.0175984,0.0392992 0.0393031,0.0392992l0.393004 0c0.0217008,0 0.0392992,-0.0175945 0.0392992,-0.0392992l0 -1.25761c0,-0.0217008 -0.0175984,-0.0392992 -0.0392992,-0.0392992l-0.148752 0c0.0800669,-0.136469 0.210441,-0.191748 0.315248,-0.236165 0.125803,-0.053315 0.221528,-0.0939094 0.197787,-0.218374l2.09211 0c0.076378,0 0.14576,0.031189 0.196008,0.081437 0.0502441,0.0502441 0.0814331,0.119622 0.0814331,0.196l0 2.02024c0,0.076374 -0.031189,0.145756 -0.0814331,0.196 -0.050248,0.050248 -0.11963,0.081437 -0.196008,0.081437l-3.17845 0c-0.076378,0 -0.14576,-0.031189 -0.196008,-0.081437 -0.0502441,-0.0502441 -0.0814331,-0.119626 -0.0814331,-0.196l0 -2.02024c0,-0.076378 0.031189,-0.145756 0.0814331,-0.196 0.050248,-0.050248 0.11963,-0.081437 0.196008,-0.081437zm0.586965 0.726724l0 0.791839 -0.0442126 0 0 -0.791839 0.0442126 0zm-0.0786063 0l0 0.362114 -0.0442126 0 0 -0.362114 0.0442126 0zm0.110417 -0.726724l0.386929 0c0.0178622,0.0761024 -0.0530945,0.106193 -0.147547,0.146224 -0.0515394,0.0218425 -0.10865,0.0460551 -0.164287,0.0800472 -0.014126,-0.0424606 -0.0288071,-0.0779252 -0.0416378,-0.108933 -0.0200787,-0.0485039 -0.0350827,-0.0847598 -0.0335866,-0.115575 2.75591e-005,-0.000590551 7.48031e-005,-0.00117717 0.000129921,-0.00176378z" id="_208882424"/><path class="fil2" d="M2.75661 2.23081c0.0664409,0.0197953 0.121224,0.0625079 0.144858,0.135531 0.00394488,0.0121929 0.00691339,0.0236772 0.00898425,0.0345315l-0.0806378 0c-0.000807087,-0.00343701 -0.00177953,-0.00695669 -0.00295669,-0.0105827 -0.0144921,-0.0447835 -0.0496417,-0.0714449 -0.0926614,-0.0842598 -0.0362953,-0.0108189 -0.0780787,-0.0122441 -0.11889,-0.00658268 -0.0413701,0.00573622 -0.081126,0.018622 -0.112823,0.0363228 -0.0339252,0.0189409 -0.0573898,0.0420827 -0.0595984,0.0651024l-0.0785079 0 8.26772e-005 -0.00192126c0.00259449,-0.0534016 0.0423189,-0.0994724 0.0999488,-0.131646 0.0400118,-0.0223425 0.0894016,-0.0385 0.140154,-0.0455394 0.0513031,-0.00711811 0.10465,-0.00508268 0.152047,0.00904331z" id="_208882400"/></g></g></svg>