<?xml version="1.0" ?><!DOCTYPE svg  PUBLIC '-//W3C//DTD SVG 1.1//EN'  'http://www.w3.org/Graphics/SVG/1.1/DTD/svg11.dtd'><svg enable-background="new 0 0 128 128" height="128px" id="Слой_1" version="1.1" viewBox="0 0 128 128" width="128px" xml:space="preserve" xmlns="http://www.w3.org/2000/svg" xmlns:xlink="http://www.w3.org/1999/xlink"><g><path clip-rule="evenodd" d="M113.805,67.829c-2.027,0.717-4.051,1.236-5.682,1.514   c-3.982,0.684-16.15,2.133-28.303,3.141l1.648-0.859l0,0c0.916-0.453,1.508-1.043,1.795-1.641c0.258-0.539,0.303-1.09,0.146-1.615   v-0.006c-0.152-0.512-0.475-0.943-0.955-1.258c-0.564-0.369-1.412-0.572-2.455-0.482v-0.004l-8.938,0.658l-0.055,0.008   c-0.66,0.068-1.379,0.223-2.09,0.445c-0.678,0.211-1.379,0.496-2.047,0.84l-0.066,0.031l-8.711,4.949   c-2.426-0.029-4.414-0.16-5.771-0.418c-1.105-0.211-3.539-1.176-6.232-2.34c19.762-13.376,31.734-10.169,45.012-6.611   C97.928,66.009,105.096,67.929,113.805,67.829z" fill="#C8252C" fill-rule="evenodd"/><path clip-rule="evenodd" d="M34.855,63.81c-0.133-0.91-0.184-1.84,0.102-2.09   c4.404-3.855,57.535-9.531,67.652-10.898c6.184-0.836,11.965,0.824,15.715,3.074c0.209,0.125,0.41,0.25,0.605,0.375   c-0.871,1.203-2.336,2.43-4.791,2.863l0.389,2.234c3.168-0.559,5.08-2.172,6.223-3.77c4.947,4.164,2.068,7.789-2.551,10.304   c-10.539,0.953-18.828-1.266-26.66-3.363c-13.879-3.719-26.373-7.063-47.279,7.447c-1.236-0.551-2.479-1.115-3.627-1.646   l1.672-0.727v0.002c0.494-0.197,0.871-0.506,1.113-0.842c0.238-0.332,0.363-0.719,0.367-1.121c0.006-0.48-0.156-0.918-0.484-1.281   l-0.008-0.008c-0.244-0.273-0.578-0.48-0.996-0.598h0.002l-3.518-1.047l-0.094-0.027c-0.361-0.082-0.729-0.094-1.119-0.031   c-0.313,0.047-0.617,0.141-0.936,0.273l-0.107,0.047L34.855,63.81z" fill="#90278E" fill-rule="evenodd"/><path clip-rule="evenodd" d="M36.023,59.353L22.148,39.498   c0.672-0.445,1.945-0.277,2.748,0.418l20.299,17.152C41.281,57.837,38.082,58.607,36.023,59.353z" fill="#C8252C" fill-rule="evenodd"/><path clip-rule="evenodd" d="M44.984,54.666l3.531-6.316c1.863-3.375,3.674-2.395,3.098,0.398   l-1.959,7.496c-0.791,0.137-1.563,0.277-2.314,0.414l-1.047-0.887L44.984,54.666z" fill="#8BC53F" fill-rule="evenodd"/><path clip-rule="evenodd" d="M38.301,64.349l3.52,1.042c0.41,0.098,0.352,0.453-0.145,0.652   l-22.574,9.799c-2.35,1.125-5.539,0.566-2.605-1.043l20.781-10.299C37.684,64.333,37.996,64.279,38.301,64.349z" fill="#8BC53F" fill-rule="evenodd"/><path clip-rule="evenodd" d="M71.182,68.972l8.939-0.66c1.902-0.176,2.328,0.955,0.563,1.805   l-66.723,34.725c-7.871,3.369-13.672,3.938-4.916-1.477l58.598-33.287C68.785,69.489,70.105,69.085,71.182,68.972z" fill="#00ADEE" fill-rule="evenodd"/><path clip-rule="evenodd" d="M85.617,51.185c4.379-7.074,13.691-22.074,17.504-27.922   c0.523-0.801,2.15-3.52,3.396-2.402c0.633,0.566,0.752,1.688-0.111,3.859c-0.66,1.664-6.188,17.602-8.752,25.012l-4.049,0.488   C91.211,50.505,88.512,50.83,85.617,51.185z" fill="#00ADEE" fill-rule="evenodd"/><path clip-rule="evenodd" d="M62.945,81.265c0.621,1.586,1.52,3.82,1.762,4.32   c0.395,0.818,1.424,4.199,6.523,4.049c5.102-0.15,7.492-1.975,7.66-4.355s-0.234-5.768-3.836-5.693   c-3.598,0.074-6.824-0.074-8.248,1.5l-0.713-1.457L62.945,81.265L62.945,81.265z M75.301,81.378c1.168,0,2.117,1.297,2.117,2.895   c0,1.602-0.949,2.898-2.117,2.898c-1.172,0-2.121-1.297-2.121-2.898C73.18,82.675,74.129,81.378,75.301,81.378z" fill="#90278E" fill-rule="evenodd"/></g></svg>