<?xml version="1.0" ?><!DOCTYPE svg  PUBLIC '-//W3C//DTD SVG 1.1//EN'  'http://www.w3.org/Graphics/SVG/1.1/DTD/svg11.dtd'><svg height="218px" style="shape-rendering:geometricPrecision; text-rendering:geometricPrecision; image-rendering:optimizeQuality; fill-rule:evenodd; clip-rule:evenodd" version="1.1" viewBox="0 0 2590 2914" width="194px" xml:space="preserve" xmlns="http://www.w3.org/2000/svg" xmlns:xlink="http://www.w3.org/1999/xlink"><defs><style type="text/css">
   <![CDATA[
    .fil0 {fill:#6B7F9E}
    .fil1 {fill:#C6CBD6}
    .fil3 {fill:#ECF0F1}
    .fil2 {fill:white}
   ]]>
  </style></defs><g id="Layer_x0020_1"><g id="_616342720"><path class="fil0" d="M1423 35l1039 600c82,47 128,128 128,222l0 1199c0,94 -47,175 -128,222l-1039 600c-82,47 -175,47 -256,0l-1039 -600c-82,-47 -128,-128 -128,-222l0 -1199c0,-94 47,-175 128,-222l1039 -600c82,-47 175,-47 256,0z"/><g><g><path class="fil1" d="M2210 1263l-14 -14 -59 -59 -14 -14c-47,18 -106,95 -129,143l7 7 59 59 7 7c49,-23 125,-82 143,-129z"/><path class="fil2" d="M2210 1263l-14 -14 -59 -59 -14 -14c-11,4 -22,11 -34,21l101 101c9,-12 17,-23 21,-34z"/><path class="fil1" d="M2309 1546l-14 -14 -59 -59 -14 -14c-47,18 -106,95 -129,143l7 7 59 59 7 7c49,-23 125,-82 143,-129z"/><path class="fil2" d="M2309 1546l-14 -14 -59 -59 -14 -14c-11,4 -22,11 -34,21l101 101c9,-12 17,-23 21,-34z"/><path class="fil1" d="M1497 551l14 14 59 59 14 14c-18,47 -95,106 -143,129l-7 -7 -59 -59 -7 -7c23,-49 82,-125 129,-143z"/><path class="fil2" d="M1497 551l14 14 59 59 14 14c-4,11 -11,22 -21,34l-101 -101c12,-9 23,-17 34,-21z"/><path class="fil1" d="M1214 451l14 14 59 59 14 14c-18,47 -95,106 -143,129l-7 -7 -59 -59 -7 -7c23,-49 82,-125 129,-143z"/><path class="fil2" d="M1214 451l14 14 59 59 14 14c-4,11 -11,22 -21,34l-101 -101c12,-9 23,-17 34,-21z"/><path class="fil3" d="M959 1801c0,0 1,15 44,-9l174 248 56 -67 -99 -261c12,-11 -11,11 40,-35 51,-46 275,-252 478,-417l584 826 53 -53 -323 -1029c132,-109 234,-196 262,-227 84,-96 160,-224 100,-344 -120,-60 -248,16 -344,100 -31,28 -118,130 -227,262l-1029 -323 -53 53 826 584c-165,203 -371,427 -417,478 -46,51 -25,28 -35,40l-261 -99 -67 56 248 174c-25,43 -9,44 -9,44z"/><polygon class="fil1" points="1003,1792 1178,2040 1191,2024 1022,1779 "/><polygon class="fil1" points="737,1569 720,1583 968,1757 981,1738 "/><polygon class="fil1" points="1652,1260 2237,2086 2257,2065 1687,1232 "/><polygon class="fil1" points="695,503 675,524 1500,1108 1529,1073 "/><path class="fil0" d="M2278 482c-12,-12 -26,-20 -42,-25l-10 27c10,6 19,13 28,22 9,9 16,18 22,28l27 -10c-5,-16 -13,-30 -25,-42zm-63 -30c-24,-3 -51,1 -78,11 24,-2 48,1 70,11l8 -22zm71 101c9,22 13,46 11,70 10,-27 14,-54 11,-78l-22 8z"/></g><path class="fil3" d="M995 1949l-519 554 546 -516 -27 -38zm-245 -220l-509 544 546 -516 -37 -27z"/><path class="fil3" d="M1954 1826l-592 639 625 -591 -33 -47zm-1093 -1052l-592 639 639 -604 -46 -35z"/></g></g></g></svg>